<svg id="Layer_1" data-name="Layer 1" xmlns="http://www.w3.org/2000/svg" viewBox="0 0 122.88 122.88"><defs><style>.cls-1{fill:#8c1515;fill-rule:evenodd;}</style></defs><title>email-solid</title><path class="cls-1" d="M25.2,0H97.68a25.27,25.27,0,0,1,25.2,25.2V97.68a25.27,25.27,0,0,1-25.2,25.2H25.2A25.27,25.27,0,0,1,0,97.68V25.2A25.27,25.27,0,0,1,25.2,0Zm4.1,37.59L62,64.26,93.33,37.59ZM27.19,82.48l23.3-23.37-23.3-19ZM53.06,61.21,29,85.29H93.65l-23-24.08-7.57,6.45h0a1.66,1.66,0,0,1-2.12,0L53,61.18ZM73.2,59.07,95.69,82.66V39.9Z"/></svg>