<svg id="bold" xmlns="http://www.w3.org/2000/svg" viewBox="0 0 512 511.99"><defs><style>.cls-1{fill:#8c1515;}</style></defs><title>home-solid</title><path class="cls-1" d="M473,216.57l-56-55V22.33a16,16,0,0,0-16-16H326.33a16,16,0,0,0-16,16V57.91L235.84-10.76a16,16,0,0,0-21.91.22l-237,227.22a27,27,0,0,0-7.89,19A26.71,26.71,0,0,0-4.33,262.33H33V465a32,32,0,0,0,32,32h90.67a16,16,0,0,0,16-16V337a5.35,5.35,0,0,1,5.33-5.34h96a5.36,5.36,0,0,1,5.33,5.34V481a16,16,0,0,0,16,16H385a32,32,0,0,0,32-32V262.33h37.33A26.71,26.71,0,0,0,481,235.66,27.12,27.12,0,0,0,473,216.57Z" transform="translate(31 15)"/></svg>