<svg id="Capa_1" data-name="Capa 1" xmlns="http://www.w3.org/2000/svg" viewBox="0 0 64 64.32"><defs><style>.cls-1{fill:#8c1515;fill-rule:evenodd;}</style></defs><title>whatsapp-solid</title><path class="cls-1" d="M54.67,9.19A31.87,31.87,0,0,0,4.52,47.64L0,64.16l16.9-4.43a31.94,31.94,0,0,0,15.22,3.88h0A31.88,31.88,0,0,0,54.67,9.19Zm-22.54,49a26.48,26.48,0,0,1-13.49-3.69l-1-.58-10,2.62,2.67-9.77-.62-1A26.5,26.5,0,0,1,50.88,13,26.52,26.52,0,0,1,32.13,58.23ZM46.65,38.39c-.79-.41-4.71-2.33-5.43-2.59s-1.26-.41-1.8.4-2.06,2.59-2.53,3.13-.93.6-1.72.2a22.26,22.26,0,0,1-6.4-4,24.35,24.35,0,0,1-4.44-5.51c-.46-.8,0-1.23.36-1.62s.79-.93,1.19-1.4a5,5,0,0,0,.79-1.33,1.44,1.44,0,0,0-.06-1.39c-.2-.41-1.8-4.33-2.45-5.92s-1.31-1.35-1.8-1.37-1,0-1.52,0a2.93,2.93,0,0,0-2.12,1,8.9,8.9,0,0,0-2.79,6.64c0,3.92,2.85,7.7,3.25,8.24s5.62,8.58,13.61,12c1.89.81,3.38,1.3,4.53,1.68a10.9,10.9,0,0,0,5,.31c1.54-.22,4.72-1.92,5.38-3.78a6.59,6.59,0,0,0,.47-3.78c-.19-.36-.72-.55-1.52-1Z" transform="translate(0 0.16)"/></svg>